<svg width="348.5" height="89.4" viewBox="0 0 348.5 89.4" xmlns="http://www.w3.org/2000/svg"><g id="svgGroup" stroke-linecap="round" fill-rule="evenodd" font-size="9pt" stroke="#161617" stroke-width="0.25mm" fill="none" style="stroke:#161617;stroke-width:0.25mm;fill:none"><path d="M 348.4 45.1 L 302.3 45.1 L 302.3 41.2 L 345.7 41.2 L 343.7 43.1 A 26.964 26.964 0 0 0 343.704 42.658 Q 343.704 39.194 342.803 36.139 A 20.207 20.207 0 0 0 341.15 32.15 Q 338.5 27.3 334 24.55 Q 329.5 21.8 323.6 21.8 A 20.882 20.882 0 0 0 317.193 22.757 A 18.522 18.522 0 0 0 313.25 24.55 Q 308.7 27.3 306.1 32.15 Q 303.5 37 303.5 43.2 L 303.5 44.1 A 24.522 24.522 0 0 0 304.304 50.491 A 20.632 20.632 0 0 0 306.35 55.45 Q 309.2 60.4 314.2 63.15 A 22.277 22.277 0 0 0 322.677 65.749 A 27.682 27.682 0 0 0 325.6 65.9 A 24.529 24.529 0 0 0 333.575 64.619 A 23.125 23.125 0 0 0 334.95 64.1 Q 339.3 62.3 342.3 58.6 L 345.2 61.9 Q 341.8 66.1 336.65 68.25 Q 331.5 70.4 325.5 70.4 A 31.196 31.196 0 0 1 317.845 69.496 A 25.544 25.544 0 0 1 311.55 67 Q 305.5 63.6 302.05 57.6 Q 298.6 51.6 298.6 43.9 Q 298.6 36.1 301.85 30.15 Q 305.1 24.2 310.8 20.8 A 24.277 24.277 0 0 1 322.608 17.417 A 29.055 29.055 0 0 1 323.6 17.4 A 26.212 26.212 0 0 1 331.715 18.625 A 23.515 23.515 0 0 1 336.35 20.7 Q 342 24 345.25 29.95 A 26.381 26.381 0 0 1 348.183 39.006 A 33.691 33.691 0 0 1 348.5 43.7 A 4.142 4.142 0 0 1 348.484 44.053 A 5.3 5.3 0 0 1 348.45 44.35 A 4.954 4.954 0 0 0 348.407 44.807 A 5.966 5.966 0 0 0 348.4 45.1 Z M 119.3 63.7 L 121.6 59.7 Q 124.125 61.889 128.068 63.546 A 37.848 37.848 0 0 0 129.6 64.15 A 30.204 30.204 0 0 0 138.518 65.95 A 35.189 35.189 0 0 0 140.4 66 Q 148.6 66 152.2 63.3 A 9.232 9.232 0 0 0 154.629 60.666 Q 155.763 58.771 155.799 56.356 A 10.645 10.645 0 0 0 155.8 56.2 Q 155.8 53 153.95 51.15 Q 152.152 49.352 149.175 48.357 A 17.579 17.579 0 0 0 149 48.3 A 46.821 46.821 0 0 0 144.945 47.199 A 58.008 58.008 0 0 0 142.2 46.65 Q 138.5 46 134.8 45.2 Q 131.1 44.4 128 42.9 A 12.961 12.961 0 0 1 124.224 40.186 A 12.158 12.158 0 0 1 123.05 38.75 A 9.537 9.537 0 0 1 121.692 35.772 Q 121.338 34.476 121.239 32.939 A 19.2 19.2 0 0 1 121.2 31.7 Q 121.2 27.7 123.4 24.5 A 13.292 13.292 0 0 1 126.679 21.218 Q 128.121 20.189 129.942 19.376 A 22.682 22.682 0 0 1 130 19.35 A 20.816 20.816 0 0 1 134.271 18.017 Q 136.345 17.593 138.748 17.46 A 40.907 40.907 0 0 1 141 17.4 Q 145.9 17.4 150.85 18.8 A 32.251 32.251 0 0 1 154.534 20.072 Q 157.047 21.125 158.9 22.5 L 156.6 26.5 Q 153.3 24 149.2 22.9 Q 145.1 21.8 140.9 21.8 A 32.794 32.794 0 0 0 136.945 22.021 Q 132.819 22.524 130.344 24.17 A 9.051 9.051 0 0 0 129.75 24.6 A 9.967 9.967 0 0 0 127.518 27.001 A 8.288 8.288 0 0 0 126.2 31.6 A 9.551 9.551 0 0 0 126.439 33.798 A 6.518 6.518 0 0 0 128.05 36.85 Q 129.9 38.8 133 39.85 Q 136.1 40.9 139.8 41.55 Q 143.5 42.2 147.2 43 A 33.485 33.485 0 0 1 152.004 44.407 A 28.892 28.892 0 0 1 154 45.25 A 13.211 13.211 0 0 1 157.387 47.492 A 11.846 11.846 0 0 1 158.95 49.25 A 8.998 8.998 0 0 1 160.308 52.131 Q 160.8 53.883 160.8 56.1 A 13.239 13.239 0 0 1 160.097 60.473 A 11.796 11.796 0 0 1 158.45 63.6 A 13.247 13.247 0 0 1 154.981 66.832 Q 153.489 67.809 151.621 68.552 A 22.839 22.839 0 0 1 151.5 68.6 Q 147.709 70.084 142.491 70.344 A 45.907 45.907 0 0 1 140.2 70.4 A 39.312 39.312 0 0 1 131.295 69.418 A 34.932 34.932 0 0 1 128.05 68.5 A 33.334 33.334 0 0 1 124.318 67.005 Q 122.447 66.112 120.974 65.062 A 16.246 16.246 0 0 1 119.3 63.7 Z M 83.5 40.9 L 102.7 40.9 L 102.7 44.8 L 83.6 44.8 Q 76.821 44.8 73.44 46.901 A 7.869 7.869 0 0 0 72.25 47.8 A 9.734 9.734 0 0 0 69.007 54.881 A 12.178 12.178 0 0 0 69 55.3 A 10.595 10.595 0 0 0 69.721 59.276 A 9.681 9.681 0 0 0 72.8 63.3 Q 75.832 65.694 80.837 66.177 A 27.699 27.699 0 0 0 83.5 66.3 A 24.123 24.123 0 0 0 88.704 65.766 A 17.572 17.572 0 0 0 94.65 63.3 A 16.995 16.995 0 0 0 100.409 56.804 A 21.787 21.787 0 0 0 101.4 54.6 L 102.8 58 Q 100.7 63.7 95.65 67.05 A 19.158 19.158 0 0 1 89.406 69.688 Q 86.395 70.4 82.8 70.4 A 30.628 30.628 0 0 1 78.022 70.046 Q 75.141 69.591 72.75 68.55 A 16.289 16.289 0 0 1 69.051 66.353 A 13.282 13.282 0 0 1 66.25 63.3 A 13.615 13.615 0 0 1 64.02 56.325 A 16.676 16.676 0 0 1 64 55.5 A 14.9 14.9 0 0 1 64.865 50.382 A 13.84 13.84 0 0 1 65.85 48.25 Q 67.598 45.179 71.533 43.18 A 20.618 20.618 0 0 1 72 42.95 A 18.234 18.234 0 0 1 75.633 41.701 Q 77.524 41.251 79.772 41.054 A 42.751 42.751 0 0 1 83.5 40.9 Z M 106.4 70 L 101.6 70 L 101.6 58.1 L 101.4 56.3 L 101.4 36.7 Q 101.4 31.338 99.269 27.865 A 11.399 11.399 0 0 0 97.45 25.6 Q 94.1 22.378 88.126 21.888 A 27.258 27.258 0 0 0 85.9 21.8 A 27.749 27.749 0 0 0 78.298 22.819 A 25.234 25.234 0 0 0 75.85 23.65 Q 71.2 25.5 67.9 28.4 L 65.4 24.8 Q 69.3 21.3 74.8 19.35 Q 80.3 17.4 86.3 17.4 A 30.761 30.761 0 0 1 92.117 17.915 Q 97.686 18.989 101.2 22.3 A 15.492 15.492 0 0 1 105.332 29.095 Q 106.116 31.599 106.325 34.635 A 33.108 33.108 0 0 1 106.4 36.9 L 106.4 70 Z M 187.297 69.328 A 28.212 28.212 0 0 0 195.2 70.4 A 31.386 31.386 0 0 0 197.731 70.3 A 25.612 25.612 0 0 0 208.6 67 Q 214.5 63.6 217.9 57.6 A 25.253 25.253 0 0 0 220.283 51.813 A 29.771 29.771 0 0 0 221.3 43.9 A 32.548 32.548 0 0 0 221.031 39.659 A 25.711 25.711 0 0 0 217.9 30.15 Q 214.5 24.2 208.6 20.8 A 24.636 24.636 0 0 0 203.337 18.536 A 28.276 28.276 0 0 0 195.2 17.4 A 31.146 31.146 0 0 0 192.389 17.525 A 25.228 25.228 0 0 0 181.85 20.8 Q 176 24.2 172.55 30.15 A 24.652 24.652 0 0 0 170.017 36.348 A 29.938 29.938 0 0 0 169.1 43.9 Q 169.1 51.6 172.55 57.6 Q 176 63.6 181.85 67 A 24.268 24.268 0 0 0 187.297 69.328 Z M 254.713 69.087 A 25.597 25.597 0 0 0 263 70.4 A 31.112 31.112 0 0 0 265.386 70.31 A 25.503 25.503 0 0 0 276.25 67.05 Q 282.1 63.7 285.45 57.7 Q 288.8 51.7 288.8 43.9 A 33.28 33.28 0 0 0 288.564 39.883 A 26.386 26.386 0 0 0 285.45 30.1 Q 282.1 24.1 276.25 20.75 A 24.544 24.544 0 0 0 271.14 18.55 A 27.987 27.987 0 0 0 263 17.4 A 28.953 28.953 0 0 0 261.692 17.429 A 24.148 24.148 0 0 0 250.55 20.6 A 22.55 22.55 0 0 0 247.591 22.633 A 23.636 23.636 0 0 0 241.75 29.75 A 25.716 25.716 0 0 0 239.122 37.156 A 34.862 34.862 0 0 0 238.5 43.9 A 35.266 35.266 0 0 0 239.036 50.191 A 25.911 25.911 0 0 0 241.75 58.05 A 27.305 27.305 0 0 0 241.955 58.419 A 22.962 22.962 0 0 0 250.55 67.2 A 23.354 23.354 0 0 0 254.713 69.087 Z M 241.8 89.4 L 236.8 89.4 L 236.8 17.8 L 241.6 17.8 L 241.6 34.9 L 240.8 44 L 241.8 53.1 L 241.8 89.4 Z M 5.1 70 L 0 70 L 0 0 L 5.1 0 L 5.1 70 Z M 20.9 35.4 L 4.4 52.3 L 4.2 45.9 L 48.8 0 L 55 0 L 23.8 32.3 L 20.9 35.4 Z M 262.7 65.9 A 22.469 22.469 0 0 0 269.721 64.829 A 20.213 20.213 0 0 0 273.5 63.15 Q 278.3 60.4 281.05 55.4 A 22.163 22.163 0 0 0 283.582 47.438 A 28.012 28.012 0 0 0 283.8 43.9 A 26.79 26.79 0 0 0 283.155 37.893 A 21.048 21.048 0 0 0 281.05 32.35 Q 278.3 27.4 273.5 24.65 A 20.947 20.947 0 0 0 264.181 21.943 A 25.249 25.249 0 0 0 262.7 21.9 Q 256.7 21.9 251.95 24.65 Q 247.2 27.4 244.45 32.35 A 21.66 21.66 0 0 0 241.996 39.746 A 28.181 28.181 0 0 0 241.7 43.9 A 26.161 26.161 0 0 0 242.431 50.204 A 21.404 21.404 0 0 0 244.45 55.4 Q 247.2 60.4 251.95 63.15 Q 256.7 65.9 262.7 65.9 Z M 195.2 65.9 A 22.469 22.469 0 0 0 202.221 64.829 A 20.213 20.213 0 0 0 206 63.15 Q 210.8 60.4 213.5 55.4 A 22.423 22.423 0 0 0 215.974 47.532 A 28.454 28.454 0 0 0 216.2 43.9 A 27.266 27.266 0 0 0 215.567 37.893 A 21.289 21.289 0 0 0 213.5 32.35 Q 210.8 27.4 206 24.65 A 20.947 20.947 0 0 0 196.681 21.943 A 25.249 25.249 0 0 0 195.2 21.9 Q 189.2 21.9 184.45 24.65 Q 179.7 27.4 176.95 32.35 A 21.66 21.66 0 0 0 174.496 39.746 A 28.181 28.181 0 0 0 174.2 43.9 A 26.161 26.161 0 0 0 174.931 50.204 A 21.404 21.404 0 0 0 176.95 55.4 Q 179.7 60.4 184.45 63.15 Q 189.2 65.9 195.2 65.9 Z M 57.1 70 L 50.9 70 L 19.4 34 L 22.9 30.3 L 57.1 70 Z" vector-effect="non-scaling-stroke"/></g></svg>